<?xml version="1.0" standalone="no"?>

<svg width="2200" height="800" viewBox="-0.186603 -1.30622 4.10526 1.49282">

<defs><mask id="mask" x="0" y="0" width="100%" height="100%">
<rect x="-10" y="-10" width="10" height="10" style="fill:#000000;" />
<g transform="scale(3.73205)">
<polygon points="0,0 1,0 0.933,-0.25 " style="fill:#ffffff;stroke-width:0" fill-opacity="1" />
</g>
</mask></defs>
<g  mask="url(#mask)">
<polygon points="-3.73205,0.00000 -1.86603,0.50000 -3.23205,1.86603 " style="fill:#fcb561;stroke:#37474F;stroke-width:0.0111962" fill-opacity="1" stroke-linejoin="round" />
</g>
<g  mask="url(#mask)">
<polygon points="1.86603,-3.23205 3.23205,-1.86603 1.36603,-1.36603 " style="fill:#fcb561;stroke:#37474F;stroke-width:0.0111962" fill-opacity="1" stroke-linejoin="round" />
</g>
<g  mask="url(#mask)">
<polygon points="-0.50000,1.86603 0.00000,3.73205 -1.86603,3.23205 " style="fill:#fcb561;stroke:#37474F;stroke-width:0.0111962" fill-opacity="1" stroke-linejoin="round" />
</g>
<g  mask="url(#mask)">
<polygon points="-1.86603,-3.23205 0.00000,-3.73205 -0.50000,-1.86603 " style="fill:#fcb561;stroke:#37474F;stroke-width:0.0111962" fill-opacity="1" stroke-linejoin="round" />
</g>
<g  mask="url(#mask)">
<polygon points="1.36603,1.36603 3.23205,1.86603 1.86603,3.23205 " style="fill:#fcb561;stroke:#37474F;stroke-width:0.0111962" fill-opacity="1" stroke-linejoin="round" />
</g>
<g  mask="url(#mask)">
<polygon points="-3.23205,-1.86603 -1.86603,-0.50000 -3.73205,0.00000 " style="fill:#fcb561;stroke:#37474F;stroke-width:0.0111962" fill-opacity="1" stroke-linejoin="round" />
</g>
<g  mask="url(#mask)">
<polygon points="3.23205,-1.86603 3.73205,0.00000 1.86603,-0.50000 " style="fill:#fcb561;stroke:#37474F;stroke-width:0.0111962" fill-opacity="1" stroke-linejoin="round" />
</g>
<g  mask="url(#mask)">
<polygon points="-3.23205,1.86603 -1.36603,1.36603 -1.86603,3.23205 " style="fill:#fcb561;stroke:#37474F;stroke-width:0.0111962" fill-opacity="1" stroke-linejoin="round" />
</g>
<g  mask="url(#mask)">
<polygon points="0.00000,-3.73205 1.86603,-3.23205 0.50000,-1.86603 " style="fill:#fcb561;stroke:#37474F;stroke-width:0.0111962" fill-opacity="1" stroke-linejoin="round" />
</g>
<g  mask="url(#mask)">
<polygon points="0.50000,1.86603 1.86603,3.23205 0.00000,3.73205 " style="fill:#fcb561;stroke:#37474F;stroke-width:0.0111962" fill-opacity="1" stroke-linejoin="round" />
</g>
<g  mask="url(#mask)">
<polygon points="-1.86603,-3.23205 -1.36603,-1.36603 -3.23205,-1.86603 " style="fill:#fcb561;stroke:#37474F;stroke-width:0.0111962" fill-opacity="1" stroke-linejoin="round" />
</g>
<g  mask="url(#mask)">
<polygon points="1.86603,0.50000 3.73205,0.00000 3.23205,1.86603 " style="fill:#fcb561;stroke:#37474F;stroke-width:0.0111962" fill-opacity="1" stroke-linejoin="round" />
</g>
<g  mask="url(#mask)">
<polygon points="0.00000,0.00000 0.50000,1.86603 0.00000,3.73205 -0.50000,1.86603 " style="fill:#fdf20d;stroke:#37474F;stroke-width:0.0111962" fill-opacity="1" stroke-linejoin="round" />
</g>
<g  mask="url(#mask)">
<polygon points="-1.86603,-3.23205 -0.50000,-1.86603 0.00000,0.00000 -1.36603,-1.36603 " style="fill:#fdf20d;stroke:#37474F;stroke-width:0.0111962" fill-opacity="1" stroke-linejoin="round" />
</g>
<g  mask="url(#mask)">
<polygon points="0.00000,0.00000 1.86603,0.50000 3.23205,1.86603 1.36603,1.36603 " style="fill:#fdf20d;stroke:#37474F;stroke-width:0.0111962" fill-opacity="1" stroke-linejoin="round" />
</g>
<g  mask="url(#mask)">
<polygon points="-1.86603,-0.50000 0.00000,0.00000 -1.86603,0.50000 -3.73205,0.00000 " style="fill:#fdf20d;stroke:#37474F;stroke-width:0.0111962" fill-opacity="1" stroke-linejoin="round" />
</g>
<g  mask="url(#mask)">
<polygon points="1.36603,-1.36603 3.23205,-1.86603 1.86603,-0.50000 0.00000,0.00000 " style="fill:#fdf20d;stroke:#37474F;stroke-width:0.0111962" fill-opacity="1" stroke-linejoin="round" />
</g>
<g  mask="url(#mask)">
<polygon points="-1.36603,1.36603 0.00000,0.00000 -0.50000,1.86603 -1.86603,3.23205 " style="fill:#fdf20d;stroke:#37474F;stroke-width:0.0111962" fill-opacity="1" stroke-linejoin="round" />
</g>
<g  mask="url(#mask)">
<polygon points="0.00000,-3.73205 0.50000,-1.86603 0.00000,0.00000 -0.50000,-1.86603 " style="fill:#fdf20d;stroke:#37474F;stroke-width:0.0111962" fill-opacity="1" stroke-linejoin="round" />
</g>
<g  mask="url(#mask)">
<polygon points="0.00000,0.00000 1.36603,1.36603 1.86603,3.23205 0.50000,1.86603 " style="fill:#fdf20d;stroke:#37474F;stroke-width:0.0111962" fill-opacity="1" stroke-linejoin="round" />
</g>
<g  mask="url(#mask)">
<polygon points="-3.23205,-1.86603 -1.36603,-1.36603 0.00000,0.00000 -1.86603,-0.50000 " style="fill:#fdf20d;stroke:#37474F;stroke-width:0.0111962" fill-opacity="1" stroke-linejoin="round" />
</g>
<g  mask="url(#mask)">
<polygon points="1.86603,-0.50000 3.73205,0.00000 1.86603,0.50000 0.00000,0.00000 " style="fill:#fdf20d;stroke:#37474F;stroke-width:0.0111962" fill-opacity="1" stroke-linejoin="round" />
</g>
<g  mask="url(#mask)">
<polygon points="-1.86603,0.50000 0.00000,0.00000 -1.36603,1.36603 -3.23205,1.86603 " style="fill:#fdf20d;stroke:#37474F;stroke-width:0.0111962" fill-opacity="1" stroke-linejoin="round" />
</g>
<g  mask="url(#mask)">
<polygon points="0.50000,-1.86603 1.86603,-3.23205 1.36603,-1.36603 0.00000,0.00000 " style="fill:#fdf20d;stroke:#37474F;stroke-width:0.0111962" fill-opacity="1" stroke-linejoin="round" />
</g>
<g  mask="url(#mask)">
<line x1="0.00000" y1="0.00000" x2="-1.86603" y2="0.50000" stroke="#39ff6f" stroke-width="0.0223923" />
</g>
<g  mask="url(#mask)">
<line x1="1.36603" y1="-1.36603" x2="0.00000" y2="0.00000" stroke="#39ff6f" stroke-width="0.0223923" />
</g>
<g  mask="url(#mask)">
<line x1="0.00000" y1="0.00000" x2="-0.50000" y2="1.86603" stroke="#39ff6f" stroke-width="0.0223923" />
</g>
<g  mask="url(#mask)">
<line x1="-0.50000" y1="-1.86603" x2="0.00000" y2="0.00000" stroke="#39ff6f" stroke-width="0.0223923" />
</g>
<g  mask="url(#mask)">
<line x1="0.00000" y1="0.00000" x2="1.36603" y2="1.36603" stroke="#39ff6f" stroke-width="0.0223923" />
</g>
<g  mask="url(#mask)">
<line x1="-1.86603" y1="-0.50000" x2="0.00000" y2="0.00000" stroke="#39ff6f" stroke-width="0.0223923" />
</g>
<g  mask="url(#mask)">
<line x1="1.86603" y1="-0.50000" x2="0.00000" y2="0.00000" stroke="#39ff6f" stroke-width="0.0223923" />
</g>
<g  mask="url(#mask)">
<line x1="0.00000" y1="0.00000" x2="-1.36603" y2="1.36603" stroke="#39ff6f" stroke-width="0.0223923" />
</g>
<g  mask="url(#mask)">
<line x1="0.50000" y1="-1.86603" x2="0.00000" y2="0.00000" stroke="#39ff6f" stroke-width="0.0223923" />
</g>
<g  mask="url(#mask)">
<line x1="0.00000" y1="0.00000" x2="0.50000" y2="1.86603" stroke="#39ff6f" stroke-width="0.0223923" />
</g>
<g  mask="url(#mask)">
<line x1="-1.36603" y1="-1.36603" x2="0.00000" y2="0.00000" stroke="#39ff6f" stroke-width="0.0223923" />
</g>
<g  mask="url(#mask)">
<line x1="0.00000" y1="0.00000" x2="1.86603" y2="0.50000" stroke="#39ff6f" stroke-width="0.0223923" />
</g>
<g>
<circle cx="0.00000" cy="0.00000" r="0.0223923" stroke="#7af7cd" stroke-width="0" fill="#7af7cd" />
</g>
<g  mask="url(#mask)">
<line x1="3.23205" y1="-1.86603" x2="3.73205" y2="0.00000" stroke="#78a5fe" stroke-width="0.0223923" />
</g>
<g  mask="url(#mask)">
<line x1="-3.23205" y1="1.86603" x2="-1.86603" y2="3.23205" stroke="#78a5fe" stroke-width="0.0223923" />
</g>
<g  mask="url(#mask)">
<line x1="0.00000" y1="-3.73205" x2="1.86603" y2="-3.23205" stroke="#78a5fe" stroke-width="0.0223923" />
</g>
<g  mask="url(#mask)">
<line x1="1.86603" y1="3.23205" x2="0.00000" y2="3.73205" stroke="#78a5fe" stroke-width="0.0223923" />
</g>
<g  mask="url(#mask)">
<line x1="-1.86603" y1="-3.23205" x2="-3.23205" y2="-1.86603" stroke="#78a5fe" stroke-width="0.0223923" />
</g>
<g  mask="url(#mask)">
<line x1="3.73205" y1="0.00000" x2="3.23205" y2="1.86603" stroke="#78a5fe" stroke-width="0.0223923" />
</g>
<g  mask="url(#mask)">
<line x1="-3.73205" y1="0.00000" x2="-3.23205" y2="1.86603" stroke="#78a5fe" stroke-width="0.0223923" />
</g>
<g  mask="url(#mask)">
<line x1="1.86603" y1="-3.23205" x2="3.23205" y2="-1.86603" stroke="#78a5fe" stroke-width="0.0223923" />
</g>
<g  mask="url(#mask)">
<line x1="-1.86603" y1="3.23205" x2="0.00000" y2="3.73205" stroke="#78a5fe" stroke-width="0.0223923" />
</g>
<g  mask="url(#mask)">
<line x1="0.00000" y1="-3.73205" x2="-1.86603" y2="-3.23205" stroke="#78a5fe" stroke-width="0.0223923" />
</g>
<g  mask="url(#mask)">
<line x1="3.23205" y1="1.86603" x2="1.86603" y2="3.23205" stroke="#78a5fe" stroke-width="0.0223923" />
</g>
<g  mask="url(#mask)">
<line x1="-3.23205" y1="-1.86603" x2="-3.73205" y2="0.00000" stroke="#78a5fe" stroke-width="0.0223923" />
</g>
<g>
<circle cx="0.00000" cy="-3.73205" r="0.0223923" stroke="#fbe668" stroke-width="0" fill="#fbe668" />
</g>
<g>
<circle cx="1.86603" cy="3.23205" r="0.0223923" stroke="#fbe668" stroke-width="0" fill="#fbe668" />
</g>
<g>
<circle cx="-3.23205" cy="-1.86603" r="0.0223923" stroke="#fbe668" stroke-width="0" fill="#fbe668" />
</g>
<g>
<circle cx="3.73205" cy="0.00000" r="0.0223923" stroke="#fbe668" stroke-width="0" fill="#fbe668" />
</g>
<g>
<circle cx="-3.23205" cy="1.86603" r="0.0223923" stroke="#fbe668" stroke-width="0" fill="#fbe668" />
</g>
<g>
<circle cx="1.86603" cy="-3.23205" r="0.0223923" stroke="#fbe668" stroke-width="0" fill="#fbe668" />
</g>
<g>
<circle cx="0.00000" cy="3.73205" r="0.0223923" stroke="#fbe668" stroke-width="0" fill="#fbe668" />
</g>
<g>
<circle cx="-1.86603" cy="-3.23205" r="0.0223923" stroke="#fbe668" stroke-width="0" fill="#fbe668" />
</g>
<g>
<circle cx="3.23205" cy="1.86603" r="0.0223923" stroke="#fbe668" stroke-width="0" fill="#fbe668" />
</g>
<g>
<circle cx="-3.73205" cy="0.00000" r="0.0223923" stroke="#fbe668" stroke-width="0" fill="#fbe668" />
</g>
<g>
<circle cx="3.23205" cy="-1.86603" r="0.0223923" stroke="#fbe668" stroke-width="0" fill="#fbe668" />
</g>
<g>
<circle cx="-1.86603" cy="3.23205" r="0.0223923" stroke="#fbe668" stroke-width="0" fill="#fbe668" />
</g>
</svg>
