<?xml version="1.0" encoding="UTF-8" standalone="no"?>
<svg
   xmlns:dc="http://purl.org/dc/elements/1.1/"
   xmlns:cc="http://creativecommons.org/ns#"
   xmlns:rdf="http://www.w3.org/1999/02/22-rdf-syntax-ns#"
   xmlns:svg="http://www.w3.org/2000/svg"
   xmlns="http://www.w3.org/2000/svg"
   width="5058.3643"
   height="2722.0698"
   viewBox="-252 -252 849.8052 457.30773"
   id="svg2"
   version="1.1">
  <metadata
     id="metadata364">
    <rdf:RDF>
      <cc:Work
         rdf:about="">
        <dc:format>image/svg+xml</dc:format>
        <dc:type
           rdf:resource="http://purl.org/dc/dcmitype/StillImage" />
        <dc:title></dc:title>
      </cc:Work>
    </rdf:RDF>
  </metadata>
  <defs
     id="defs362" />
  <circle
     style="fill:#000000;fill-opacity:0.31372501"
     cx="214.90147"
     cy="50.262882"
     r="140.12488"
     id="circle6"
     transform="scale(1,-1)" />
  <circle
     style="fill:#000000;stroke:#000000;stroke-width:0"
     cx="313.9848"
     cy="190.38776"
     r="3.570612"
     id="circle22"
     transform="scale(1,-1)" />
  <circle
     style="fill:#000000;stroke:#000000;stroke-width:0"
     cx="326.00549"
     cy="178.36688"
     r="3.570612"
     id="circle24"
     transform="scale(1,-1)" />
  <circle
     style="fill:#000000;stroke:#000000;stroke-width:0"
     cx="355.02637"
     cy="149.34619"
     r="3.570612"
     id="circle26"
     transform="scale(1,-1)" />
  <circle
     style="fill:#000000;stroke:#000000;stroke-width:0"
     cx="384.04724"
     cy="120.32533"
     r="3.570612"
     id="circle28"
     transform="scale(1,-1)" />
  <circle
     style="fill:#000000;stroke:#000000;stroke-width:0"
     cx="396.06793"
     cy="108.30446"
     r="3.570612"
     id="circle30"
     transform="scale(1,-1)" />
  <circle
     style="fill:#000000;stroke:#000000;stroke-width:0"
     cx="425.08881"
     cy="79.283752"
     r="3.570612"
     id="circle32"
     transform="scale(1,-1)" />
  <circle
     style="fill:#000000;stroke:#000000;stroke-width:0"
     cx="454.10968"
     cy="50.262882"
     r="3.570612"
     id="circle34"
     transform="scale(1,-1)" />
  <circle
     style="fill:#000000;stroke:#000000;stroke-width:0"
     cx="483.13037"
     cy="21.242014"
     r="3.570612"
     id="circle36"
     transform="scale(1,-1)" />
  <circle
     style="fill:#000000;stroke:#000000;stroke-width:0"
     cx="495.15125"
     cy="9.2213106"
     r="3.570612"
     id="circle38"
     transform="scale(1,-1)" />
  <circle
     style="fill:#000000;stroke:#000000;stroke-width:0"
     cx="524.17212"
     cy="-19.799555"
     r="3.570612"
     id="circle40"
     transform="scale(1,-1)" />
  <circle
     style="fill:#000000;stroke:#000000;stroke-width:0"
     cx="553.19281"
     cy="-48.820431"
     r="3.570612"
     id="circle42"
     transform="scale(1,-1)" />
  <circle
     style="fill:#000000;stroke:#000000;stroke-width:0"
     cx="565.21368"
     cy="-60.841129"
     r="3.570612"
     id="circle44"
     transform="scale(1,-1)" />
  <circle
     style="fill:#000000;stroke:#000000;stroke-width:0"
     cx="594.23456"
     cy="-89.861992"
     r="3.570612"
     id="circle46"
     transform="scale(1,-1)" />
  <circle
     style="fill:#000000;stroke:#000000;stroke-width:0"
     cx="272.94305"
     cy="190.38776"
     r="3.570612"
     id="circle48"
     transform="scale(1,-1)" />
  <circle
     style="fill:#000000;stroke:#000000;stroke-width:0"
     cx="284.96393"
     cy="178.36688"
     r="3.570612"
     id="circle50"
     transform="scale(1,-1)" />
  <circle
     style="fill:#000000;stroke:#000000;stroke-width:0"
     cx="313.9848"
     cy="149.34619"
     r="3.570612"
     id="circle52"
     transform="scale(1,-1)" />
  <circle
     style="fill:#000000;stroke:#000000;stroke-width:0"
     cx="343.00549"
     cy="120.32533"
     r="3.570612"
     id="circle54"
     transform="scale(1,-1)" />
  <circle
     style="fill:#000000;stroke:#000000;stroke-width:0"
     cx="355.02637"
     cy="108.30446"
     r="3.570612"
     id="circle56"
     transform="scale(1,-1)" />
  <circle
     style="fill:#000000;stroke:#000000;stroke-width:0"
     cx="384.04724"
     cy="79.283752"
     r="3.570612"
     id="circle58"
     transform="scale(1,-1)" />
  <circle
     style="fill:#000000;stroke:#000000;stroke-width:0"
     cx="413.06793"
     cy="50.262882"
     r="3.570612"
     id="circle60"
     transform="scale(1,-1)" />
  <circle
     style="fill:#000000;stroke:#000000;stroke-width:0"
     cx="442.08881"
     cy="21.242014"
     r="3.570612"
     id="circle62"
     transform="scale(1,-1)" />
  <circle
     style="fill:#000000;stroke:#000000;stroke-width:0"
     cx="454.10968"
     cy="9.2213106"
     r="3.570612"
     id="circle64"
     transform="scale(1,-1)" />
  <circle
     style="fill:#000000;stroke:#000000;stroke-width:0"
     cx="483.13037"
     cy="-19.799555"
     r="3.570612"
     id="circle66"
     transform="scale(1,-1)" />
  <circle
     style="fill:#000000;stroke:#000000;stroke-width:0"
     cx="512.15125"
     cy="-48.820431"
     r="3.570612"
     id="circle68"
     transform="scale(1,-1)" />
  <circle
     style="fill:#000000;stroke:#000000;stroke-width:0"
     cx="524.17212"
     cy="-60.841129"
     r="3.570612"
     id="circle70"
     transform="scale(1,-1)" />
  <circle
     style="fill:#000000;stroke:#000000;stroke-width:0"
     cx="553.19281"
     cy="-89.861992"
     r="3.570612"
     id="circle72"
     transform="scale(1,-1)" />
  <circle
     style="fill:#000000;stroke:#000000;stroke-width:0"
     cx="214.90147"
     cy="190.38776"
     r="3.570612"
     id="circle74"
     transform="scale(1,-1)" />
  <circle
     style="fill:#000000;stroke:#000000;stroke-width:0"
     cx="226.92235"
     cy="178.36688"
     r="3.570612"
     id="circle76"
     transform="scale(1,-1)" />
  <circle
     style="fill:#000000;stroke:#000000;stroke-width:0"
     cx="255.94305"
     cy="149.34619"
     r="3.570612"
     id="circle78"
     transform="scale(1,-1)" />
  <circle
     style="fill:#000000;stroke:#000000;stroke-width:0"
     cx="284.96393"
     cy="120.32533"
     r="3.570612"
     id="circle80"
     transform="scale(1,-1)" />
  <circle
     style="fill:#000000;stroke:#000000;stroke-width:0"
     cx="296.9848"
     cy="108.30446"
     r="3.570612"
     id="circle82"
     transform="scale(1,-1)" />
  <circle
     style="fill:#000000;stroke:#000000;stroke-width:0"
     cx="326.00549"
     cy="79.283752"
     r="3.570612"
     id="circle84"
     transform="scale(1,-1)" />
  <circle
     style="fill:#000000;stroke:#000000;stroke-width:0"
     cx="355.02637"
     cy="50.262882"
     r="3.570612"
     id="circle86"
     transform="scale(1,-1)" />
  <circle
     style="fill:#000000;stroke:#000000;stroke-width:0"
     cx="384.04724"
     cy="21.242014"
     r="3.570612"
     id="circle88"
     transform="scale(1,-1)" />
  <circle
     style="fill:#000000;stroke:#000000;stroke-width:0"
     cx="396.06793"
     cy="9.2213106"
     r="3.570612"
     id="circle90"
     transform="scale(1,-1)" />
  <circle
     style="fill:#000000;stroke:#000000;stroke-width:0"
     cx="425.08881"
     cy="-19.799555"
     r="3.570612"
     id="circle92"
     transform="scale(1,-1)" />
  <circle
     style="fill:#000000;stroke:#000000;stroke-width:0"
     cx="454.10968"
     cy="-48.820431"
     r="3.570612"
     id="circle94"
     transform="scale(1,-1)" />
  <circle
     style="fill:#000000;stroke:#000000;stroke-width:0"
     cx="466.13037"
     cy="-60.841129"
     r="3.570612"
     id="circle96"
     transform="scale(1,-1)" />
  <circle
     style="fill:#000000;stroke:#000000;stroke-width:0"
     cx="495.15125"
     cy="-89.861992"
     r="3.570612"
     id="circle98"
     transform="scale(1,-1)" />
  <circle
     style="fill:#000000;stroke:#000000;stroke-width:0"
     cx="173.85991"
     cy="190.38776"
     r="3.570612"
     id="circle100"
     transform="scale(1,-1)" />
  <circle
     style="fill:#000000;stroke:#000000;stroke-width:0"
     cx="185.8806"
     cy="178.36688"
     r="3.570612"
     id="circle102"
     transform="scale(1,-1)" />
  <circle
     style="fill:#000000;stroke:#000000;stroke-width:0"
     cx="214.90147"
     cy="149.34619"
     r="3.570612"
     id="circle104"
     transform="scale(1,-1)" />
  <circle
     style="fill:#000000;stroke:#000000;stroke-width:0"
     cx="243.92235"
     cy="120.32533"
     r="3.570612"
     id="circle106"
     transform="scale(1,-1)" />
  <circle
     style="fill:#000000;stroke:#000000;stroke-width:0"
     cx="255.94305"
     cy="108.30446"
     r="3.570612"
     id="circle108"
     transform="scale(1,-1)" />
  <circle
     style="fill:#000000;stroke:#000000;stroke-width:0"
     cx="284.96393"
     cy="79.283752"
     r="3.570612"
     id="circle110"
     transform="scale(1,-1)" />
  <circle
     style="fill:#000000;stroke:#000000;stroke-width:0"
     cx="313.9848"
     cy="50.262882"
     r="3.570612"
     id="circle112"
     transform="scale(1,-1)" />
  <circle
     style="fill:#000000;stroke:#000000;stroke-width:0"
     cx="343.00549"
     cy="21.242014"
     r="3.570612"
     id="circle114"
     transform="scale(1,-1)" />
  <circle
     style="fill:#000000;stroke:#000000;stroke-width:0"
     cx="355.02637"
     cy="9.2213106"
     r="3.570612"
     id="circle116"
     transform="scale(1,-1)" />
  <circle
     style="fill:#000000;stroke:#000000;stroke-width:0"
     cx="384.04724"
     cy="-19.799555"
     r="3.570612"
     id="circle118"
     transform="scale(1,-1)" />
  <circle
     style="fill:#000000;stroke:#000000;stroke-width:0"
     cx="413.06793"
     cy="-48.820431"
     r="3.570612"
     id="circle120"
     transform="scale(1,-1)" />
  <circle
     style="fill:#000000;stroke:#000000;stroke-width:0"
     cx="425.08881"
     cy="-60.841129"
     r="3.570612"
     id="circle122"
     transform="scale(1,-1)" />
  <circle
     style="fill:#000000;stroke:#000000;stroke-width:0"
     cx="454.10968"
     cy="-89.861992"
     r="3.570612"
     id="circle124"
     transform="scale(1,-1)" />
  <circle
     style="fill:#000000;stroke:#000000;stroke-width:0"
     cx="132.81816"
     cy="190.38776"
     r="3.570612"
     id="circle126"
     transform="scale(1,-1)" />
  <circle
     style="fill:#000000;stroke:#000000;stroke-width:0"
     cx="144.83904"
     cy="178.36688"
     r="3.570612"
     id="circle128"
     transform="scale(1,-1)" />
  <circle
     style="fill:#000000;stroke:#000000;stroke-width:0"
     cx="173.85991"
     cy="149.34619"
     r="3.570612"
     id="circle130"
     transform="scale(1,-1)" />
  <circle
     style="fill:#000000;stroke:#000000;stroke-width:0"
     cx="202.8806"
     cy="120.32533"
     r="3.570612"
     id="circle132"
     transform="scale(1,-1)" />
  <circle
     style="fill:#000000;stroke:#000000;stroke-width:0"
     cx="214.90147"
     cy="108.30446"
     r="3.570612"
     id="circle134"
     transform="scale(1,-1)" />
  <circle
     style="fill:#000000;stroke:#000000;stroke-width:0"
     cx="243.92235"
     cy="79.283752"
     r="3.570612"
     id="circle136"
     transform="scale(1,-1)" />
  <circle
     style="fill:#000000;stroke:#000000;stroke-width:0"
     cx="272.94305"
     cy="50.262882"
     r="3.570612"
     id="circle138"
     transform="scale(1,-1)" />
  <circle
     style="fill:#000000;stroke:#000000;stroke-width:0"
     cx="301.96393"
     cy="21.242014"
     r="3.570612"
     id="circle140"
     transform="scale(1,-1)" />
  <circle
     style="fill:#000000;stroke:#000000;stroke-width:0"
     cx="313.9848"
     cy="9.2213106"
     r="3.570612"
     id="circle142"
     transform="scale(1,-1)" />
  <circle
     style="fill:#000000;stroke:#000000;stroke-width:0"
     cx="343.00549"
     cy="-19.799555"
     r="3.570612"
     id="circle144"
     transform="scale(1,-1)" />
  <circle
     style="fill:#000000;stroke:#000000;stroke-width:0"
     cx="372.02637"
     cy="-48.820431"
     r="3.570612"
     id="circle146"
     transform="scale(1,-1)" />
  <circle
     style="fill:#000000;stroke:#000000;stroke-width:0"
     cx="384.04724"
     cy="-60.841129"
     r="3.570612"
     id="circle148"
     transform="scale(1,-1)" />
  <circle
     style="fill:#000000;stroke:#000000;stroke-width:0"
     cx="413.06793"
     cy="-89.861992"
     r="3.570612"
     id="circle150"
     transform="scale(1,-1)" />
  <circle
     style="fill:#000000;stroke:#000000;stroke-width:0"
     cx="115.81816"
     cy="190.38776"
     r="3.570612"
     id="circle152"
     transform="scale(1,-1)" />
  <circle
     style="fill:#000000;stroke:#000000;stroke-width:0"
     cx="127.83904"
     cy="178.36688"
     r="3.570612"
     id="circle154"
     transform="scale(1,-1)" />
  <circle
     style="fill:#000000;stroke:#000000;stroke-width:0"
     cx="156.85991"
     cy="149.34619"
     r="3.570612"
     id="circle156"
     transform="scale(1,-1)" />
  <circle
     style="fill:#000000;stroke:#000000;stroke-width:0"
     cx="185.8806"
     cy="120.32533"
     r="3.570612"
     id="circle158"
     transform="scale(1,-1)" />
  <circle
     style="fill:#000000;stroke:#000000;stroke-width:0"
     cx="197.90147"
     cy="108.30446"
     r="3.570612"
     id="circle160"
     transform="scale(1,-1)" />
  <circle
     style="fill:#000000;stroke:#000000;stroke-width:0"
     cx="226.92235"
     cy="79.283752"
     r="3.570612"
     id="circle162"
     transform="scale(1,-1)" />
  <circle
     style="fill:#000000;stroke:#000000;stroke-width:0"
     cx="255.94305"
     cy="50.262882"
     r="3.570612"
     id="circle164"
     transform="scale(1,-1)" />
  <circle
     style="fill:#000000;stroke:#000000;stroke-width:0"
     cx="284.96393"
     cy="21.242014"
     r="3.570612"
     id="circle166"
     transform="scale(1,-1)" />
  <circle
     style="fill:#000000;stroke:#000000;stroke-width:0"
     cx="296.9848"
     cy="9.2213106"
     r="3.570612"
     id="circle168"
     transform="scale(1,-1)" />
  <circle
     style="fill:#000000;stroke:#000000;stroke-width:0"
     cx="326.00549"
     cy="-19.799555"
     r="3.570612"
     id="circle170"
     transform="scale(1,-1)" />
  <circle
     style="fill:#000000;stroke:#000000;stroke-width:0"
     cx="355.02637"
     cy="-48.820431"
     r="3.570612"
     id="circle172"
     transform="scale(1,-1)" />
  <circle
     style="fill:#000000;stroke:#000000;stroke-width:0"
     cx="367.04724"
     cy="-60.841129"
     r="3.570612"
     id="circle174"
     transform="scale(1,-1)" />
  <circle
     style="fill:#000000;stroke:#000000;stroke-width:0"
     cx="396.06793"
     cy="-89.861992"
     r="3.570612"
     id="circle176"
     transform="scale(1,-1)" />
  <circle
     style="fill:#000000;stroke:#000000;stroke-width:0"
     cx="74.776596"
     cy="190.38776"
     r="3.570612"
     id="circle178"
     transform="scale(1,-1)" />
  <circle
     style="fill:#000000;stroke:#000000;stroke-width:0"
     cx="86.79747"
     cy="178.36688"
     r="3.570612"
     id="circle180"
     transform="scale(1,-1)" />
  <circle
     style="fill:#000000;stroke:#000000;stroke-width:0"
     cx="115.81816"
     cy="149.34619"
     r="3.570612"
     id="circle182"
     transform="scale(1,-1)" />
  <circle
     style="fill:#000000;stroke:#000000;stroke-width:0"
     cx="144.83904"
     cy="120.32533"
     r="3.570612"
     id="circle184"
     transform="scale(1,-1)" />
  <circle
     style="fill:#000000;stroke:#000000;stroke-width:0"
     cx="156.85991"
     cy="108.30446"
     r="3.570612"
     id="circle186"
     transform="scale(1,-1)" />
  <circle
     style="fill:#000000;stroke:#000000;stroke-width:0"
     cx="185.8806"
     cy="79.283752"
     r="3.570612"
     id="circle188"
     transform="scale(1,-1)" />
  <circle
     style="fill:#000000;stroke:#000000;stroke-width:0"
     cx="214.90147"
     cy="50.262882"
     r="3.570612"
     id="circle190"
     transform="scale(1,-1)" />
  <circle
     style="fill:#000000;stroke:#000000;stroke-width:0"
     cx="243.92235"
     cy="21.242014"
     r="3.570612"
     id="circle192"
     transform="scale(1,-1)" />
  <circle
     style="fill:#000000;stroke:#000000;stroke-width:0"
     cx="255.94305"
     cy="9.2213106"
     r="3.570612"
     id="circle194"
     transform="scale(1,-1)" />
  <circle
     style="fill:#000000;stroke:#000000;stroke-width:0"
     cx="284.96393"
     cy="-19.799555"
     r="3.570612"
     id="circle196"
     transform="scale(1,-1)" />
  <circle
     style="fill:#000000;stroke:#000000;stroke-width:0"
     cx="313.9848"
     cy="-48.820431"
     r="3.570612"
     id="circle198"
     transform="scale(1,-1)" />
  <circle
     style="fill:#000000;stroke:#000000;stroke-width:0"
     cx="326.00549"
     cy="-60.841129"
     r="3.570612"
     id="circle200"
     transform="scale(1,-1)" />
  <circle
     style="fill:#000000;stroke:#000000;stroke-width:0"
     cx="355.02637"
     cy="-89.861992"
     r="3.570612"
     id="circle202"
     transform="scale(1,-1)" />
  <circle
     style="fill:#000000;stroke:#000000;stroke-width:0"
     cx="33.735031"
     cy="190.38776"
     r="3.570612"
     id="circle204"
     transform="scale(1,-1)" />
  <circle
     style="fill:#000000;stroke:#000000;stroke-width:0"
     cx="45.755722"
     cy="178.36688"
     r="3.570612"
     id="circle206"
     transform="scale(1,-1)" />
  <circle
     style="fill:#000000;stroke:#000000;stroke-width:0"
     cx="74.776596"
     cy="149.34619"
     r="3.570612"
     id="circle208"
     transform="scale(1,-1)" />
  <circle
     style="fill:#000000;stroke:#000000;stroke-width:0"
     cx="103.79746"
     cy="120.32533"
     r="3.570612"
     id="circle210"
     transform="scale(1,-1)" />
  <circle
     style="fill:#000000;stroke:#000000;stroke-width:0"
     cx="115.81816"
     cy="108.30446"
     r="3.570612"
     id="circle212"
     transform="scale(1,-1)" />
  <circle
     style="fill:#000000;stroke:#000000;stroke-width:0"
     cx="144.83904"
     cy="79.283752"
     r="3.570612"
     id="circle214"
     transform="scale(1,-1)" />
  <circle
     style="fill:#000000;stroke:#000000;stroke-width:0"
     cx="173.85991"
     cy="50.262882"
     r="3.570612"
     id="circle216"
     transform="scale(1,-1)" />
  <circle
     style="fill:#000000;stroke:#000000;stroke-width:0"
     cx="202.8806"
     cy="21.242014"
     r="3.570612"
     id="circle218"
     transform="scale(1,-1)" />
  <circle
     style="fill:#000000;stroke:#000000;stroke-width:0"
     cx="214.90147"
     cy="9.2213106"
     r="3.570612"
     id="circle220"
     transform="scale(1,-1)" />
  <circle
     style="fill:#000000;stroke:#000000;stroke-width:0"
     cx="243.92235"
     cy="-19.799555"
     r="3.570612"
     id="circle222"
     transform="scale(1,-1)" />
  <circle
     style="fill:#000000;stroke:#000000;stroke-width:0"
     cx="272.94305"
     cy="-48.820431"
     r="3.570612"
     id="circle224"
     transform="scale(1,-1)" />
  <circle
     style="fill:#000000;stroke:#000000;stroke-width:0"
     cx="284.96393"
     cy="-60.841129"
     r="3.570612"
     id="circle226"
     transform="scale(1,-1)" />
  <circle
     style="fill:#000000;stroke:#000000;stroke-width:0"
     cx="313.9848"
     cy="-89.861992"
     r="3.570612"
     id="circle228"
     transform="scale(1,-1)" />
  <circle
     style="fill:#000000;stroke:#000000;stroke-width:0"
     cx="-24.306717"
     cy="190.38776"
     r="3.570612"
     id="circle230"
     transform="scale(1,-1)" />
  <circle
     style="fill:#000000;stroke:#000000;stroke-width:0"
     cx="-12.285843"
     cy="178.36688"
     r="3.570612"
     id="circle232"
     transform="scale(1,-1)" />
  <circle
     style="fill:#000000;stroke:#000000;stroke-width:0"
     cx="16.735031"
     cy="149.34619"
     r="3.570612"
     id="circle234"
     transform="scale(1,-1)" />
  <circle
     style="fill:#000000;stroke:#000000;stroke-width:0"
     cx="45.755722"
     cy="120.32533"
     r="3.570612"
     id="circle236"
     transform="scale(1,-1)" />
  <circle
     style="fill:#000000;stroke:#000000;stroke-width:0"
     cx="57.776596"
     cy="108.30446"
     r="3.570612"
     id="circle238"
     transform="scale(1,-1)" />
  <circle
     style="fill:#000000;stroke:#000000;stroke-width:0"
     cx="86.79747"
     cy="79.283752"
     r="3.570612"
     id="circle240"
     transform="scale(1,-1)" />
  <circle
     style="fill:#000000;stroke:#000000;stroke-width:0"
     cx="115.81816"
     cy="50.262882"
     r="3.570612"
     id="circle242"
     transform="scale(1,-1)" />
  <circle
     style="fill:#000000;stroke:#000000;stroke-width:0"
     cx="144.83904"
     cy="21.242014"
     r="3.570612"
     id="circle244"
     transform="scale(1,-1)" />
  <circle
     style="fill:#000000;stroke:#000000;stroke-width:0"
     cx="156.85991"
     cy="9.2213106"
     r="3.570612"
     id="circle246"
     transform="scale(1,-1)" />
  <circle
     style="fill:#000000;stroke:#000000;stroke-width:0"
     cx="185.8806"
     cy="-19.799555"
     r="3.570612"
     id="circle248"
     transform="scale(1,-1)" />
  <circle
     style="fill:#000000;stroke:#000000;stroke-width:0"
     cx="214.90147"
     cy="-48.820431"
     r="3.570612"
     id="circle250"
     transform="scale(1,-1)" />
  <circle
     style="fill:#000000;stroke:#000000;stroke-width:0"
     cx="226.92235"
     cy="-60.841129"
     r="3.570612"
     id="circle252"
     transform="scale(1,-1)" />
  <circle
     style="fill:#000000;stroke:#000000;stroke-width:0"
     cx="255.94305"
     cy="-89.861992"
     r="3.570612"
     id="circle254"
     transform="scale(1,-1)" />
  <circle
     style="fill:#000000;stroke:#000000;stroke-width:0"
     cx="-65.348282"
     cy="190.38776"
     r="3.570612"
     id="circle256"
     transform="scale(1,-1)" />
  <circle
     style="fill:#000000;stroke:#000000;stroke-width:0"
     cx="-53.327408"
     cy="178.36688"
     r="3.570612"
     id="circle258"
     transform="scale(1,-1)" />
  <circle
     style="fill:#000000;stroke:#000000;stroke-width:0"
     cx="-24.306717"
     cy="149.34619"
     r="3.570612"
     id="circle260"
     transform="scale(1,-1)" />
  <circle
     style="fill:#000000;stroke:#000000;stroke-width:0"
     cx="4.7141576"
     cy="120.32533"
     r="3.570612"
     id="circle262"
     transform="scale(1,-1)" />
  <circle
     style="fill:#000000;stroke:#000000;stroke-width:0"
     cx="16.735031"
     cy="108.30446"
     r="3.570612"
     id="circle264"
     transform="scale(1,-1)" />
  <circle
     style="fill:#000000;stroke:#000000;stroke-width:0"
     cx="45.755722"
     cy="79.283752"
     r="3.570612"
     id="circle266"
     transform="scale(1,-1)" />
  <circle
     style="fill:#000000;stroke:#000000;stroke-width:0"
     cx="74.776596"
     cy="50.262882"
     r="3.570612"
     id="circle268"
     transform="scale(1,-1)" />
  <circle
     style="fill:#000000;stroke:#000000;stroke-width:0"
     cx="103.79746"
     cy="21.242014"
     r="3.570612"
     id="circle270"
     transform="scale(1,-1)" />
  <circle
     style="fill:#000000;stroke:#000000;stroke-width:0"
     cx="115.81816"
     cy="9.2213106"
     r="3.570612"
     id="circle272"
     transform="scale(1,-1)" />
  <circle
     style="fill:#000000;stroke:#000000;stroke-width:0"
     cx="144.83904"
     cy="-19.799555"
     r="3.570612"
     id="circle274"
     transform="scale(1,-1)" />
  <circle
     style="fill:#000000;stroke:#000000;stroke-width:0"
     cx="173.85991"
     cy="-48.820431"
     r="3.570612"
     id="circle276"
     transform="scale(1,-1)" />
  <circle
     style="fill:#000000;stroke:#000000;stroke-width:0"
     cx="185.8806"
     cy="-60.841129"
     r="3.570612"
     id="circle278"
     transform="scale(1,-1)" />
  <circle
     style="fill:#000000;stroke:#000000;stroke-width:0"
     cx="214.90147"
     cy="-89.861992"
     r="3.570612"
     id="circle280"
     transform="scale(1,-1)" />
  <circle
     style="fill:#000000;stroke:#000000;stroke-width:0"
     cx="-106.38985"
     cy="190.38776"
     r="3.570612"
     id="circle282"
     transform="scale(1,-1)" />
  <circle
     style="fill:#000000;stroke:#000000;stroke-width:0"
     cx="-94.369156"
     cy="178.36688"
     r="3.570612"
     id="circle284"
     transform="scale(1,-1)" />
  <circle
     style="fill:#000000;stroke:#000000;stroke-width:0"
     cx="-65.348282"
     cy="149.34619"
     r="3.570612"
     id="circle286"
     transform="scale(1,-1)" />
  <circle
     style="fill:#000000;stroke:#000000;stroke-width:0"
     cx="-36.327408"
     cy="120.32533"
     r="3.570612"
     id="circle288"
     transform="scale(1,-1)" />
  <circle
     style="fill:#000000;stroke:#000000;stroke-width:0"
     cx="-24.306717"
     cy="108.30446"
     r="3.570612"
     id="circle290"
     transform="scale(1,-1)" />
  <circle
     style="fill:#000000;stroke:#000000;stroke-width:0"
     cx="4.7141576"
     cy="79.283752"
     r="3.570612"
     id="circle292"
     transform="scale(1,-1)" />
  <circle
     style="fill:#000000;stroke:#000000;stroke-width:0"
     cx="33.735031"
     cy="50.262882"
     r="3.570612"
     id="circle294"
     transform="scale(1,-1)" />
  <circle
     style="fill:#000000;stroke:#000000;stroke-width:0"
     cx="62.755722"
     cy="21.242014"
     r="3.570612"
     id="circle296"
     transform="scale(1,-1)" />
  <circle
     style="fill:#000000;stroke:#000000;stroke-width:0"
     cx="74.776596"
     cy="9.2213106"
     r="3.570612"
     id="circle298"
     transform="scale(1,-1)" />
  <circle
     style="fill:#000000;stroke:#000000;stroke-width:0"
     cx="103.79746"
     cy="-19.799555"
     r="3.570612"
     id="circle300"
     transform="scale(1,-1)" />
  <circle
     style="fill:#000000;stroke:#000000;stroke-width:0"
     cx="132.81816"
     cy="-48.820431"
     r="3.570612"
     id="circle302"
     transform="scale(1,-1)" />
  <circle
     style="fill:#000000;stroke:#000000;stroke-width:0"
     cx="144.83904"
     cy="-60.841129"
     r="3.570612"
     id="circle304"
     transform="scale(1,-1)" />
  <circle
     style="fill:#000000;stroke:#000000;stroke-width:0"
     cx="173.85991"
     cy="-89.861992"
     r="3.570612"
     id="circle306"
     transform="scale(1,-1)" />
  <circle
     style="fill:#000000;stroke:#000000;stroke-width:0"
     cx="-123.38985"
     cy="190.38776"
     r="3.570612"
     id="circle308"
     transform="scale(1,-1)" />
  <circle
     style="fill:#000000;stroke:#000000;stroke-width:0"
     cx="-111.36916"
     cy="178.36688"
     r="3.570612"
     id="circle310"
     transform="scale(1,-1)" />
  <circle
     style="fill:#000000;stroke:#000000;stroke-width:0"
     cx="-82.348282"
     cy="149.34619"
     r="3.570612"
     id="circle312"
     transform="scale(1,-1)" />
  <circle
     style="fill:#000000;stroke:#000000;stroke-width:0"
     cx="-53.327408"
     cy="120.32533"
     r="3.570612"
     id="circle314"
     transform="scale(1,-1)" />
  <circle
     style="fill:#000000;stroke:#000000;stroke-width:0"
     cx="-41.306717"
     cy="108.30446"
     r="3.570612"
     id="circle316"
     transform="scale(1,-1)" />
  <circle
     style="fill:#000000;stroke:#000000;stroke-width:0"
     cx="-12.285843"
     cy="79.283752"
     r="3.570612"
     id="circle318"
     transform="scale(1,-1)" />
  <circle
     style="fill:#000000;stroke:#000000;stroke-width:0"
     cx="16.735031"
     cy="50.262882"
     r="3.570612"
     id="circle320"
     transform="scale(1,-1)" />
  <circle
     style="fill:#000000;stroke:#000000;stroke-width:0"
     cx="45.755722"
     cy="21.242014"
     r="3.570612"
     id="circle322"
     transform="scale(1,-1)" />
  <circle
     style="fill:#000000;stroke:#000000;stroke-width:0"
     cx="57.776596"
     cy="9.2213106"
     r="3.570612"
     id="circle324"
     transform="scale(1,-1)" />
  <circle
     style="fill:#000000;stroke:#000000;stroke-width:0"
     cx="86.79747"
     cy="-19.799555"
     r="3.570612"
     id="circle326"
     transform="scale(1,-1)" />
  <circle
     style="fill:#000000;stroke:#000000;stroke-width:0"
     cx="115.81816"
     cy="-48.820431"
     r="3.570612"
     id="circle328"
     transform="scale(1,-1)" />
  <circle
     style="fill:#000000;stroke:#000000;stroke-width:0"
     cx="127.83904"
     cy="-60.841129"
     r="3.570612"
     id="circle330"
     transform="scale(1,-1)" />
  <circle
     style="fill:#000000;stroke:#000000;stroke-width:0"
     cx="156.85991"
     cy="-89.861992"
     r="3.570612"
     id="circle332"
     transform="scale(1,-1)" />
  <circle
     style="fill:#000000;stroke:#000000;stroke-width:0"
     cx="-164.43159"
     cy="190.38776"
     r="3.570612"
     id="circle334"
     transform="scale(1,-1)" />
  <circle
     style="fill:#000000;stroke:#000000;stroke-width:0"
     cx="-152.41072"
     cy="178.36688"
     r="3.570612"
     id="circle336"
     transform="scale(1,-1)" />
  <circle
     style="fill:#000000;stroke:#000000;stroke-width:0"
     cx="-123.38985"
     cy="149.34619"
     r="3.570612"
     id="circle338"
     transform="scale(1,-1)" />
  <circle
     style="fill:#000000;stroke:#000000;stroke-width:0"
     cx="-94.369156"
     cy="120.32533"
     r="3.570612"
     id="circle340"
     transform="scale(1,-1)" />
  <circle
     style="fill:#000000;stroke:#000000;stroke-width:0"
     cx="-82.348282"
     cy="108.30446"
     r="3.570612"
     id="circle342"
     transform="scale(1,-1)" />
  <circle
     style="fill:#000000;stroke:#000000;stroke-width:0"
     cx="-53.327408"
     cy="79.283752"
     r="3.570612"
     id="circle344"
     transform="scale(1,-1)" />
  <circle
     style="fill:#000000;stroke:#000000;stroke-width:0"
     cx="-24.306717"
     cy="50.262882"
     r="3.570612"
     id="circle346"
     transform="scale(1,-1)" />
  <circle
     style="fill:#000000;stroke:#000000;stroke-width:0"
     cx="4.7141576"
     cy="21.242014"
     r="3.570612"
     id="circle348"
     transform="scale(1,-1)" />
  <circle
     style="fill:#000000;stroke:#000000;stroke-width:0"
     cx="16.735031"
     cy="9.2213106"
     r="3.570612"
     id="circle350"
     transform="scale(1,-1)" />
  <circle
     style="fill:#000000;stroke:#000000;stroke-width:0"
     cx="45.755722"
     cy="-19.799555"
     r="3.570612"
     id="circle352"
     transform="scale(1,-1)" />
  <circle
     style="fill:#000000;stroke:#000000;stroke-width:0"
     cx="74.776596"
     cy="-48.820431"
     r="3.570612"
     id="circle354"
     transform="scale(1,-1)" />
  <circle
     style="fill:#000000;stroke:#000000;stroke-width:0"
     cx="86.79747"
     cy="-60.841129"
     r="3.570612"
     id="circle356"
     transform="scale(1,-1)" />
  <circle
     style="fill:#000000;stroke:#000000;stroke-width:0"
     cx="115.81816"
     cy="-89.861992"
     r="3.570612"
     id="circle358"
     transform="scale(1,-1)" />
  <g
     id="g4557"
     transform="matrix(0.70710678,0.70710678,-0.70710678,0.70710678,23.402634,221.56914)">
    <circle
       style="fill:#000000;stroke:#000000;stroke-width:0"
       cx="-524.55341"
       cy="140.12488"
       r="3.570612"
       id="circle4531"
       transform="scale(1,-1)" />
    <circle
       style="fill:#000000;stroke:#000000;stroke-width:0"
       cx="-512.53253"
       cy="128.104"
       r="3.570612"
       id="circle4533"
       transform="scale(1,-1)" />
    <circle
       style="fill:#000000;stroke:#000000;stroke-width:0"
       cx="-483.51166"
       cy="99.083313"
       r="3.570612"
       id="circle4535"
       transform="scale(1,-1)" />
    <circle
       style="fill:#000000;stroke:#000000;stroke-width:0"
       cx="-454.49097"
       cy="70.062439"
       r="3.570612"
       id="circle4537"
       transform="scale(1,-1)" />
    <circle
       style="fill:#000000;stroke:#000000;stroke-width:0"
       cx="-442.47009"
       cy="58.041573"
       r="3.570612"
       id="circle4539"
       transform="scale(1,-1)" />
    <circle
       style="fill:#000000;stroke:#000000;stroke-width:0"
       cx="-413.44922"
       cy="29.02087"
       r="3.570612"
       id="circle4541"
       transform="scale(1,-1)" />
    <circle
       style="fill:#000000;stroke:#000000;stroke-width:0"
       cx="-384.42853"
       cy="0"
       r="3.570612"
       id="circle4543"
       transform="scale(1,-1)" />
    <circle
       style="fill:#000000;stroke:#000000;stroke-width:0"
       cx="-355.40765"
       cy="-29.02087"
       r="3.570612"
       id="circle4545"
       transform="scale(1,-1)" />
    <circle
       style="fill:#000000;stroke:#000000;stroke-width:0"
       cx="-343.38678"
       cy="-41.041573"
       r="3.570612"
       id="circle4547"
       transform="scale(1,-1)" />
    <circle
       style="fill:#000000;stroke:#000000;stroke-width:0"
       cx="-314.36609"
       cy="-70.062439"
       r="3.570612"
       id="circle4549"
       transform="scale(1,-1)" />
    <circle
       style="fill:#000000;stroke:#000000;stroke-width:0"
       cx="-285.34521"
       cy="-99.083313"
       r="3.570612"
       id="circle4551"
       transform="scale(1,-1)" />
    <circle
       style="fill:#000000;stroke:#000000;stroke-width:0"
       cx="-273.32434"
       cy="-111.10401"
       r="3.570612"
       id="circle4553"
       transform="scale(1,-1)" />
    <circle
       style="fill:#000000;stroke:#000000;stroke-width:0"
       cx="-244.30365"
       cy="-140.12488"
       r="3.570612"
       id="circle4555"
       transform="scale(1,-1)" />
  </g>
  <g
     transform="translate(214.90147,-50.262883)"
     id="g4600">
    <circle
       style="fill:#000000;stroke:#000000;stroke-width:0"
       cx="239.20819"
       cy="-252"
       r="3.570612"
       id="circle4574"
       transform="scale(1,-1)" />
    <circle
       style="fill:#000000;stroke:#000000;stroke-width:0"
       cx="198.16644"
       cy="-252"
       r="3.570612"
       id="circle4576"
       transform="scale(1,-1)" />
    <circle
       style="fill:#000000;stroke:#000000;stroke-width:0"
       cx="140.12488"
       cy="-252"
       r="3.570612"
       id="circle4578"
       transform="scale(1,-1)" />
    <circle
       style="fill:#000000;stroke:#000000;stroke-width:0"
       cx="99.083313"
       cy="-252"
       r="3.570612"
       id="circle4580"
       transform="scale(1,-1)" />
    <circle
       style="fill:#000000;stroke:#000000;stroke-width:0"
       cx="58.041573"
       cy="-252"
       r="3.570612"
       id="circle4582"
       transform="scale(1,-1)" />
    <circle
       style="fill:#000000;stroke:#000000;stroke-width:0"
       cx="41.041573"
       cy="-252"
       r="3.570612"
       id="circle4584"
       transform="scale(1,-1)" />
    <circle
       style="fill:#000000;stroke:#000000;stroke-width:0"
       cx="0"
       cy="-252"
       r="3.570612"
       id="circle4586"
       transform="scale(1,-1)" />
    <circle
       style="fill:#000000;stroke:#000000;stroke-width:0"
       cx="-41.041573"
       cy="-252"
       r="3.570612"
       id="circle4588"
       transform="scale(1,-1)" />
    <circle
       style="fill:#000000;stroke:#000000;stroke-width:0"
       cx="-99.083313"
       cy="-252"
       r="3.570612"
       id="circle4590"
       transform="scale(1,-1)" />
    <circle
       style="fill:#000000;stroke:#000000;stroke-width:0"
       cx="-140.12488"
       cy="-252"
       r="3.570612"
       id="circle4592"
       transform="scale(1,-1)" />
    <circle
       style="fill:#000000;stroke:#000000;stroke-width:0"
       cx="-181.16644"
       cy="-252"
       r="3.570612"
       id="circle4594"
       transform="scale(1,-1)" />
    <circle
       style="fill:#000000;stroke:#000000;stroke-width:0"
       cx="-198.16644"
       cy="-252"
       r="3.570612"
       id="circle4596"
       transform="scale(1,-1)" />
    <circle
       style="fill:#000000;stroke:#000000;stroke-width:0"
       cx="-239.20819"
       cy="-252"
       r="3.570612"
       id="circle4598"
       transform="scale(1,-1)" />
  </g>
  <g
     transform="matrix(0,-0.13754925,0.13754925,0,151.52533,335.65838)"
     id="g4819">
    <g
       style="font-style:normal;font-variant:normal;font-weight:normal;font-stretch:normal;letter-spacing:normal;word-spacing:normal;text-anchor:start;fill:none;fill-opacity:1;fill-rule:evenodd;stroke:#000000;stroke-linecap:butt;stroke-linejoin:miter;stroke-miterlimit:10.43299961;stroke-dasharray:none;stroke-dashoffset:0;stroke-opacity:1"
       id="content"
       transform="matrix(4.2857143,0,0,-4.2857143,-750,2250)"
       xml:space="preserve"
       stroke-miterlimit="10.433"
       font-style="normal"
       font-variant="normal"
       font-weight="normal"
       font-stretch="normal"
       font-size-adjust="none"
       letter-spacing="normal"
       word-spacing="normal"><path
         style="fill:#000000;stroke-width:0"
         d="m 460.25,417.65 0.03,0 0.04,0 0.04,0 0.04,0 0.04,0.01 0.05,0 0.05,0 0.06,0.01 0.05,0 0.06,0.01 0.06,0.01 0.05,0.01 0.06,0.02 0.06,0.02 0.06,0.02 0.06,0.02 0.06,0.02 0.06,0.03 0.05,0.03 0.05,0.04 0.05,0.03 0.05,0.05 0.03,0.02 0.02,0.02 0.02,0.03 0.02,0.02 0.02,0.03 0.02,0.03 0.02,0.03 0.01,0.03 0.02,0.03 0.01,0.03 0.02,0.04 0.01,0.03 0.01,0.04 0.01,0.04 0.01,0.04 0,0.04 0.01,0.04 0,0.04 0,0.05 0,0.04 c 0,1 -1.09,1 -1.39,1 l 0,6.53 c 0,0.8 0,1.74 -1,1.74 -1,0 -1,-0.94 -1,-1.74 l 0,-15.04 c 0,-0.8 0,-1.75 1,-1.75 1,0 1,0.95 1,1.75 z"
         id="path4822" /><path
         style="fill:#000000;stroke-width:0"
         d="m 488.35,417.65 0.16,0 0.16,0 0.15,0.01 0.08,0 0.08,0.01 0.07,0 0.08,0.01 0.07,0.01 0.07,0.01 0.07,0.02 0.07,0.02 0.07,0.02 0.06,0.02 0.06,0.02 0.06,0.03 0.05,0.03 0.06,0.04 0.05,0.03 0.04,0.05 0.04,0.04 0.04,0.05 0.02,0.03 0.02,0.03 0.01,0.03 0.02,0.03 0.01,0.03 0.02,0.03 0.01,0.04 0.01,0.03 0.01,0.04 0,0.04 0.01,0.04 0.01,0.04 0,0.04 0.01,0.04 0,0.05 0,0.04 c 0,1 -0.91,1 -1.75,1 l -26.96,0 c -0.84,0 -1.73,0 -1.73,-1 0,-1 0.89,-1 1.73,-1 z"
         id="path4824" /><path
         style="fill:#000000;stroke-width:0"
         d="m 527.54,417.65 -0.25,-0.19 -0.24,-0.2 -0.24,-0.19 -0.23,-0.2 -0.22,-0.19 -0.21,-0.19 -0.21,-0.19 -0.19,-0.19 -0.19,-0.18 -0.19,-0.18 -0.17,-0.18 -0.17,-0.18 -0.16,-0.17 -0.16,-0.17 -0.14,-0.17 -0.14,-0.16 -0.14,-0.15 -0.12,-0.16 -0.12,-0.15 -0.11,-0.14 -0.11,-0.14 -0.1,-0.13 -0.1,-0.13 -0.08,-0.12 -0.09,-0.11 -0.07,-0.11 -0.07,-0.11 -0.06,-0.09 -0.06,-0.09 -0.05,-0.08 -0.05,-0.07 -0.04,-0.07 c -2.24,-3.44 -2.64,-6.58 -2.64,-6.62 0,-0.6 0.61,-0.6 1,-0.6 0.84,0 0.89,0.1 1.09,1 1.16,4.88 4.09,9.06 9.72,11.36 0.59,0.19 0.75,0.3 0.75,0.64 0,0.35 -0.3,0.5 -0.41,0.55 -2.18,0.84 -8.22,3.34 -10.1,11.72 -0.16,0.59 -0.21,0.73 -1.05,0.73 -0.39,0 -1,0 -1,-0.59 0,-0.1 0.45,-3.24 2.55,-6.58 1,-1.48 2.43,-3.23 4.57,-4.83 l -37.01,0 c -0.89,0 -1.8,0 -1.8,-1 0,-1 0.91,-1 1.8,-1 z"
         id="path4826" /></g>  </g>
  <g
     id="g5035"
     transform="matrix(0.13754925,0,0,0.13754925,-327.68998,-113.57849)">
    <g
       word-spacing="normal"
       letter-spacing="normal"
       font-size-adjust="none"
       font-stretch="normal"
       font-weight="normal"
       font-variant="normal"
       font-style="normal"
       stroke-miterlimit="10.433"
       xml:space="preserve"
       transform="matrix(4.2857143,0,0,-4.2857143,-750,2250)"
       id="g5037"
       style="font-style:normal;font-variant:normal;font-weight:normal;font-stretch:normal;letter-spacing:normal;word-spacing:normal;text-anchor:start;fill:none;fill-opacity:1;fill-rule:evenodd;stroke:#000000;stroke-linecap:butt;stroke-linejoin:miter;stroke-miterlimit:10.43299961;stroke-dasharray:none;stroke-dashoffset:0;stroke-opacity:1"><path
         id="path5039"
         d="m 460.25,417.65 0.03,0 0.04,0 0.04,0 0.04,0 0.04,0.01 0.05,0 0.05,0 0.06,0.01 0.05,0 0.06,0.01 0.06,0.01 0.05,0.01 0.06,0.02 0.06,0.02 0.06,0.02 0.06,0.02 0.06,0.02 0.06,0.03 0.05,0.03 0.05,0.04 0.05,0.03 0.05,0.05 0.03,0.02 0.02,0.02 0.02,0.03 0.02,0.02 0.02,0.03 0.02,0.03 0.02,0.03 0.01,0.03 0.02,0.03 0.01,0.03 0.02,0.04 0.01,0.03 0.01,0.04 0.01,0.04 0.01,0.04 0,0.04 0.01,0.04 0,0.04 0,0.05 0,0.04 c 0,1 -1.09,1 -1.39,1 l 0,6.53 c 0,0.8 0,1.74 -1,1.74 -1,0 -1,-0.94 -1,-1.74 l 0,-15.04 c 0,-0.8 0,-1.75 1,-1.75 1,0 1,0.95 1,1.75 z"
         style="fill:#000000;stroke-width:0" /><path
         id="path5041"
         d="m 488.35,417.65 0.16,0 0.16,0 0.15,0.01 0.08,0 0.08,0.01 0.07,0 0.08,0.01 0.07,0.01 0.07,0.01 0.07,0.02 0.07,0.02 0.07,0.02 0.06,0.02 0.06,0.02 0.06,0.03 0.05,0.03 0.06,0.04 0.05,0.03 0.04,0.05 0.04,0.04 0.04,0.05 0.02,0.03 0.02,0.03 0.01,0.03 0.02,0.03 0.01,0.03 0.02,0.03 0.01,0.04 0.01,0.03 0.01,0.04 0,0.04 0.01,0.04 0.01,0.04 0,0.04 0.01,0.04 0,0.05 0,0.04 c 0,1 -0.91,1 -1.75,1 l -26.96,0 c -0.84,0 -1.73,0 -1.73,-1 0,-1 0.89,-1 1.73,-1 z"
         style="fill:#000000;stroke-width:0" /><path
         id="path5043"
         d="m 527.54,417.65 -0.25,-0.19 -0.24,-0.2 -0.24,-0.19 -0.23,-0.2 -0.22,-0.19 -0.21,-0.19 -0.21,-0.19 -0.19,-0.19 -0.19,-0.18 -0.19,-0.18 -0.17,-0.18 -0.17,-0.18 -0.16,-0.17 -0.16,-0.17 -0.14,-0.17 -0.14,-0.16 -0.14,-0.15 -0.12,-0.16 -0.12,-0.15 -0.11,-0.14 -0.11,-0.14 -0.1,-0.13 -0.1,-0.13 -0.08,-0.12 -0.09,-0.11 -0.07,-0.11 -0.07,-0.11 -0.06,-0.09 -0.06,-0.09 -0.05,-0.08 -0.05,-0.07 -0.04,-0.07 c -2.24,-3.44 -2.64,-6.58 -2.64,-6.62 0,-0.6 0.61,-0.6 1,-0.6 0.84,0 0.89,0.1 1.09,1 1.16,4.88 4.09,9.06 9.72,11.36 0.59,0.19 0.75,0.3 0.75,0.64 0,0.35 -0.3,0.5 -0.41,0.55 -2.18,0.84 -8.22,3.34 -10.1,11.72 -0.16,0.59 -0.21,0.73 -1.05,0.73 -0.39,0 -1,0 -1,-0.59 0,-0.1 0.45,-3.24 2.55,-6.58 1,-1.48 2.43,-3.23 4.57,-4.83 l -37.01,0 c -0.89,0 -1.8,0 -1.8,-1 0,-1 0.91,-1 1.8,-1 z"
         style="fill:#000000;stroke-width:0" /></g>  </g>
</svg>
