<?xml version="1.0" encoding="UTF-8" standalone="no"?>
<svg
   xmlns:dc="http://purl.org/dc/elements/1.1/"
   xmlns:cc="http://creativecommons.org/ns#"
   xmlns:rdf="http://www.w3.org/1999/02/22-rdf-syntax-ns#"
   xmlns:svg="http://www.w3.org/2000/svg"
   xmlns="http://www.w3.org/2000/svg"
   width="2740.1851"
   height="2973.095"
   viewBox="-1.30222 -1.30222 1.4273295 1.5486495"
   id="svg2"
   version="1.1">
  <metadata
     id="metadata32">
    <rdf:RDF>
      <cc:Work
         rdf:about="">
        <dc:format>image/svg+xml</dc:format>
        <dc:type
           rdf:resource="http://purl.org/dc/dcmitype/StillImage" />
        <dc:title></dc:title>
      </cc:Work>
    </rdf:RDF>
  </metadata>
  <defs
     id="defs30" />
  <polygon
     points="0.42007,0 0.29704,0.29704 0,0.42007 -0.29704,0.29704 -0.42007,0 -0.29704,-0.29704 0,-0.42007 0.29704,-0.29704 "
     style="fill:none;fill-opacity:1;stroke:#000000;stroke-width:0.00260444;stroke-miterlimit:4;stroke-dasharray:none"
     id="polygon4"
     transform="translate(-0.58855524,-0.46723524)" />
  <polygon
     points="0.71296,-0.29289 0.58993,0.00414 0.29289,0.12718 -0.00414,0.00414 -0.12718,-0.29289 -0.00414,-0.58993 0.29289,-0.71296 0.58993,-0.58993 "
     style="fill:none;fill-opacity:1;stroke:#000000;stroke-width:0.00130222;stroke-miterlimit:4;stroke-dasharray:none;stroke-opacity:0.47058824"
     id="polygon6"
     transform="translate(-0.58855524,-0.46723524)" />
  <!-- **STARED**
 -->
  <circle
     cx="-0.29566523"
     cy="-0.76012522"
     r="0.00233373"
     id="circle8"
     style="fill:#000000;stroke:none;stroke-width:0.00130222;stroke-miterlimit:4;stroke-dasharray:none" />
  <polygon
     points="0.12718,-0.29289 0.00414,0.00414 -0.29289,0.12718 -0.58993,0.00414 -0.71296,-0.29289 -0.58993,-0.58993 -0.29289,-0.71296 0.00414,-0.58993 "
     style="fill:none;fill-opacity:1;stroke:#000000;stroke-width:0.00130222;stroke-miterlimit:4;stroke-dasharray:none;stroke-opacity:0.47058824"
     id="polygon10"
     transform="translate(-0.58855524,-0.46723524)" />
  <!-- **STARED**
 -->
  <circle
     cx="-0.88144523"
     cy="-0.76012522"
     r="0.00233373"
     id="circle12"
     style="fill:#000000;stroke:none;stroke-width:0.00130222;stroke-miterlimit:4;stroke-dasharray:none" />
  <polygon
     points="0.54139,0.29289 0.41836,0.58993 0.12132,0.71296 -0.17572,0.58993 -0.29875,0.29289 -0.17572,-0.00414 0.12132,-0.12718 0.41836,-0.00414 "
     style="fill:none;fill-opacity:1;stroke:#000000;stroke-width:0.00130222;stroke-miterlimit:4;stroke-dasharray:none;stroke-opacity:0.47058824"
     id="polygon14"
     transform="translate(-0.58855524,-0.46723524)" />
  <!-- **STARED**
 -->
  <circle
     cx="-0.46723524"
     cy="-0.17434523"
     r="0.00233373"
     id="circle16"
     style="fill:#000000;stroke:none;stroke-width:0.00130222;stroke-miterlimit:4;stroke-dasharray:none" />
  <polygon
     points="0.42007,-0.41421 0.29704,-0.11718 0,0.00586 -0.29704,-0.11718 -0.42007,-0.41421 -0.29704,-0.71125 0,-0.83428 0.29704,-0.71125 "
     style="fill:none;fill-opacity:1;stroke:#000000;stroke-width:0.00130222;stroke-miterlimit:4;stroke-dasharray:none;stroke-opacity:0.47058824"
     id="polygon18"
     transform="translate(-0.58855524,-0.46723524)" />
  <!-- **STARED**
 -->
  <circle
     cx="-0.58855522"
     cy="-0.88144523"
     r="0.00233373"
     id="circle20"
     style="fill:#000000;stroke:none;stroke-width:0.00130222;stroke-miterlimit:4;stroke-dasharray:none" />
  <polygon
     points="0.29875,0.29289 0.17572,0.58993 -0.12132,0.71296 -0.41836,0.58993 -0.54139,0.29289 -0.41836,-0.00414 -0.12132,-0.12718 0.17572,-0.00414 "
     style="fill:none;fill-opacity:1;stroke:#000000;stroke-width:0.00130222;stroke-miterlimit:4;stroke-dasharray:none;stroke-opacity:0.47058824"
     id="polygon22"
     transform="translate(-0.58855524,-0.46723524)" />
  <!-- **STARED**
 -->
  <circle
     cx="-0.70987523"
     cy="-0.17434523"
     r="0.00233373"
     id="circle24"
     style="fill:#000000;stroke:none;stroke-width:0.00130222;stroke-miterlimit:4;stroke-dasharray:none" />
  <polygon
     points="0.00414,0.00414 0,0.00586 -0.00414,0.00414 -0.0322,-0.06359 0,-0.07693 0.0322,-0.06359 "
     style="fill:#000000;fill-opacity:0.31372549;stroke:none;stroke-width:0.00130222;stroke-miterlimit:4;stroke-dasharray:none"
     id="polygon26"
     transform="translate(-0.58855524,-0.46723524)" />
</svg>
