<?xml version="1.0" encoding="UTF-8" standalone="no"?>
<svg
   xmlns:dc="http://purl.org/dc/elements/1.1/"
   xmlns:cc="http://creativecommons.org/ns#"
   xmlns:rdf="http://www.w3.org/1999/02/22-rdf-syntax-ns#"
   xmlns:svg="http://www.w3.org/2000/svg"
   xmlns="http://www.w3.org/2000/svg"
   width="2411.4817"
   height="2973.7905"
   viewBox="-1.30222 -1.30222 1.2561119 1.5490118"
   id="svg2"
   version="1.1">
  <metadata
     id="metadata42">
    <rdf:RDF>
      <cc:Work
         rdf:about="">
        <dc:format>image/svg+xml</dc:format>
        <dc:type
           rdf:resource="http://purl.org/dc/dcmitype/StillImage" />
        <dc:title></dc:title>
      </cc:Work>
    </rdf:RDF>
  </metadata>
  <defs
     id="defs40" />
  <polygon
     points="0.42007,0 0.29704,0.29704 0,0.42007 -0.29704,0.29704 -0.42007,0 -0.29704,-0.29704 0,-0.42007 0.29704,-0.29704 "
     style="fill:none;fill-opacity:1;stroke:#000000;stroke-width:0.00208355;stroke-miterlimit:4;stroke-dasharray:none"
     id="polygon6"
     transform="translate(-0.46723524,-0.17433523)" />
  <polygon
     points="0.29875,-0.29289 0.17572,0.00414 -0.12132,0.12718 -0.41836,0.00414 -0.54139,-0.29289 -0.41836,-0.58993 -0.12132,-0.71296 0.17572,-0.58993 "
     style="fill:none;fill-opacity:1;stroke:#000000;stroke-width:0.00130222;stroke-miterlimit:4;stroke-dasharray:none;stroke-opacity:0.47058824"
     id="polygon8"
     transform="translate(-0.46723524,-0.17433523)" />
  <polygon
     points="0.00586,-0.58579 -0.11718,-0.28875 -0.41421,-0.16572 -0.71125,-0.28875 -0.83428,-0.58579 -0.71125,-0.88282 -0.41421,-1.00586 -0.11718,-0.88282 "
     style="fill:none;fill-opacity:1;stroke:#000000;stroke-width:0.00130222;stroke-miterlimit:4;stroke-dasharray:none;stroke-opacity:0.47058824"
     id="polygon10"
     transform="translate(-0.46723524,-0.17433523)" />
  <polygon
     points="0.42007,-0.58579 0.29704,-0.28875 0,-0.16572 -0.29704,-0.28875 -0.42007,-0.58579 -0.29704,-0.88282 0,-1.00586 0.29704,-0.88282 "
     style="fill:none;fill-opacity:1;stroke:#000000;stroke-width:0.00130222;stroke-miterlimit:4;stroke-dasharray:none;stroke-opacity:0.47058824"
     id="polygon12"
     transform="translate(-0.46723524,-0.17433523)" />
  <polygon
     points="0.12718,-0.29289 0.00414,0.00414 -0.29289,0.12718 -0.58993,0.00414 -0.71296,-0.29289 -0.58993,-0.58993 -0.29289,-0.71296 0.00414,-0.58993 "
     style="fill:none;fill-opacity:1;stroke:#000000;stroke-width:0.00130222;stroke-miterlimit:4;stroke-dasharray:none;stroke-opacity:0.47058824"
     id="polygon14"
     transform="translate(-0.46723524,-0.17433523)" />
  <polygon
     points="0.42007,-0.41421 0.29704,-0.11718 0,0.00586 -0.29704,-0.11718 -0.42007,-0.41421 -0.29704,-0.71125 0,-0.83428 0.29704,-0.71125 "
     style="fill:none;fill-opacity:1;stroke:#000000;stroke-width:0.00130222;stroke-miterlimit:4;stroke-dasharray:none;stroke-opacity:0.47058824"
     id="polygon16"
     transform="translate(-0.46723524,-0.17433523)" />
  <polygon
     points="0.00586,-0.41421 -0.11718,-0.11718 -0.41421,0.00586 -0.71125,-0.11718 -0.83428,-0.41421 -0.71125,-0.71125 -0.41421,-0.83428 -0.11718,-0.71125 "
     style="fill:none;fill-opacity:1;stroke:#000000;stroke-width:0.00130222;stroke-miterlimit:4;stroke-dasharray:none;stroke-opacity:0.47058824"
     id="polygon18"
     transform="translate(-0.46723524,-0.17433523)" />
  <polygon
     points="0.29875,-0.70711 0.17572,-0.41007 -0.12132,-0.28704 -0.41836,-0.41007 -0.54139,-0.70711 -0.41836,-1.00414 -0.12132,-1.12718 0.17572,-1.00414 "
     style="fill:none;fill-opacity:1;stroke:#000000;stroke-width:0.00130222;stroke-miterlimit:4;stroke-dasharray:none;stroke-opacity:0.47058824"
     id="polygon20"
     transform="translate(-0.46723524,-0.17433523)" />
  <polygon
     points="-0.12132,-0.28704 -0.22125,-0.32843 -0.07579,-0.38868 -0.11718,-0.28875 "
     style="fill:#000000;fill-opacity:0.31372549;stroke:#000000;stroke-width:0.00130222;stroke-miterlimit:4;stroke-dasharray:none"
     id="polygon22"
     transform="translate(-0.46723524,-0.17433523)" />
  <circle
     cx="-0.58855522"
     cy="-0.46722525"
     r="0.00233373"
     id="circle24"
     style="fill:#000000;stroke:none;stroke-width:0.00130222;stroke-miterlimit:4;stroke-dasharray:none" />
  <circle
     cx="-0.88144523"
     cy="-0.76012522"
     r="0.00233373"
     id="circle26"
     style="fill:#000000;stroke:none;stroke-width:0.00130222;stroke-miterlimit:4;stroke-dasharray:none" />
  <circle
     cx="-0.46723524"
     cy="-0.76012522"
     r="0.00233373"
     id="circle28"
     style="fill:#000000;stroke:none;stroke-width:0.00130222;stroke-miterlimit:4;stroke-dasharray:none" />
  <circle
     cx="-0.76012522"
     cy="-0.46722525"
     r="0.00233373"
     id="circle30"
     style="fill:#000000;stroke:none;stroke-width:0.00130222;stroke-miterlimit:4;stroke-dasharray:none" />
  <circle
     cx="-0.46723524"
     cy="-0.5885452"
     r="0.00233373"
     id="circle32"
     style="fill:#000000;stroke:none;stroke-width:0.00130222;stroke-miterlimit:4;stroke-dasharray:none" />
  <circle
     cx="-0.88144523"
     cy="-0.5885452"
     r="0.00233373"
     id="circle34"
     style="fill:#000000;stroke:none;stroke-width:0.00130222;stroke-miterlimit:4;stroke-dasharray:none" />
  <circle
     cx="-0.58855522"
     cy="-0.88144523"
     r="0.00233373"
     id="circle36"
     style="fill:#000000;stroke:none;stroke-width:0.00130222;stroke-miterlimit:4;stroke-dasharray:none" />
</svg>
