<?xml version="1.0" encoding="UTF-8" standalone="no"?>
<svg
   xmlns:dc="http://purl.org/dc/elements/1.1/"
   xmlns:cc="http://creativecommons.org/ns#"
   xmlns:rdf="http://www.w3.org/1999/02/22-rdf-syntax-ns#"
   xmlns:svg="http://www.w3.org/2000/svg"
   xmlns="http://www.w3.org/2000/svg"
   width="2740.7261"
   height="2411.3462"
   viewBox="-1.30222 -1.30222 1.4276114 1.2560414"
   id="svg2"
   version="1.1">
  <metadata
     id="metadata24">
    <rdf:RDF>
      <cc:Work
         rdf:about="">
        <dc:format>image/svg+xml</dc:format>
        <dc:type
           rdf:resource="http://purl.org/dc/dcmitype/StillImage" />
        <dc:title></dc:title>
      </cc:Work>
    </rdf:RDF>
  </metadata>
  <defs
     id="defs22" />
  <polygon
     points="0,-0.42007 0.29704,-0.29704 0.42007,0 0.29704,0.29704 0,0.42007 -0.29704,0.29704 -0.42007,0 -0.29704,-0.29704 "
     style="fill:none;fill-opacity:1;stroke:#000000;stroke-width:0.00208355;stroke-miterlimit:4;stroke-dasharray:none"
     id="polygon4"
     transform="translate(-0.58841429,-0.46709429)" />
  <polygon
     points="0.29289,-0.71296 0.58993,-0.58993 0.71296,-0.29289 0.58993,0.00414 0.29289,0.12718 -0.00414,0.00414 -0.12718,-0.29289 -0.00414,-0.58993 "
     style="fill:none;fill-opacity:1;stroke:#000000;stroke-width:0.00130222;stroke-miterlimit:4;stroke-dasharray:none;stroke-opacity:0.47058824"
     id="polygon6"
     transform="translate(-0.58841429,-0.46709429)" />
  <polygon
     points="-0.29289,-0.71296 0.00414,-0.58993 0.12718,-0.29289 0.00414,0.00414 -0.29289,0.12718 -0.58993,0.00414 -0.71296,-0.29289 -0.58993,-0.58993 "
     style="fill:none;fill-opacity:1;stroke:#000000;stroke-width:0.00130222;stroke-miterlimit:4;stroke-dasharray:none;stroke-opacity:0.47058824"
     id="polygon8"
     transform="translate(-0.58841429,-0.46709429)" />
  <polygon
     points="0,-0.83428 0.29704,-0.71125 0.42007,-0.41421 0.29704,-0.11718 0,0.00586 -0.29704,-0.11718 -0.42007,-0.41421 -0.29704,-0.71125 "
     style="fill:none;fill-opacity:1;stroke:#000000;stroke-width:0.00130222;stroke-miterlimit:4;stroke-dasharray:none;stroke-opacity:0.47058824"
     id="polygon10"
     transform="translate(-0.58841429,-0.46709429)" />
  <polygon
     points="-0.08993,-0.38282 0,-0.42007 0.08993,-0.38282 0.12718,-0.29289 0.00414,0.00414 0,0.00586 -0.00414,0.00414 -0.12718,-0.29289 "
     style="fill:#000000;fill-opacity:0.31372549;stroke:#000000;stroke-width:0.00126021"
     id="polygon12"
     transform="translate(-0.58841429,-0.46709429)" />
  <circle
     cx="-0.58841425"
     cy="-0.88130432"
     r="0.00233373"
     id="circle14"
     style="fill:#000000;stroke:#000000;stroke-width:0" />
  <circle
     cx="-0.88130432"
     cy="-0.75998431"
     r="0.00233373"
     id="circle16"
     style="fill:#000000;stroke:#000000;stroke-width:0" />
  <circle
     cx="-0.29552427"
     cy="-0.75998431"
     r="0.00233373"
     id="circle18"
     style="fill:#000000;stroke:#000000;stroke-width:0" />
</svg>
